<?xml version="1.0" encoding="iso-8859-1"?>
<!-- Generator: Adobe Illustrator 19.0.0, SVG Export Plug-In . SVG Version: 6.00 Build 0)  -->
<svg version="1.1" id="Capa_1" xmlns="http://www.w3.org/2000/svg" xmlns:xlink="http://www.w3.org/1999/xlink" x="0px" y="0px"
	 viewBox="0 0 512 512" style="enable-background:new 0 0 512 512;" xml:space="preserve">
<rect x="201" y="376" style="fill:#063E8B;" width="110" height="70"/>
<g>
	<rect x="256" y="376" style="fill:#032E68;" width="55" height="70"/>
	<rect x="416" y="376" style="fill:#032E68;" width="30" height="35"/>
	<rect x="356" y="376" style="fill:#032E68;" width="30" height="35"/>
</g>
<path style="fill:#0A4EAF;" d="M512,391H0V51h512V391z"/>
<path style="fill:#063E8B;" d="M512,391H256V51h256V391z"/>
<rect x="30" y="81" style="fill:#E6F9FF;" width="452" height="280"/>
<rect x="256" y="81" style="fill:#CCEFFF;" width="226" height="280"/>
<rect x="156" y="431" style="fill:#0A4EAF;" width="200" height="30"/>
<g>
	<rect x="256" y="431" style="fill:#063E8B;" width="100" height="30"/>
	<path style="fill:#063E8B;" d="M256,323.944c-31.135,0-61.547-8.722-87.95-25.224l-7.05-4.406V191h190v103.314l-7.05,4.406
		C317.548,315.221,287.135,323.944,256,323.944z"/>
</g>
<path style="fill:#032E68;" d="M256,191v132.944c31.135,0,61.548-8.722,87.95-25.224l7.05-4.406V191H256z"/>
<path style="fill:#0A4EAF;" d="M256,244.029L97.197,176L256,107.971L414.804,176L256,244.029z"/>
<path style="fill:#063E8B;" d="M256,244.029V107.971L414.804,176L256,244.029z"/>
<g>
</g>
<g>
</g>
<g>
</g>
<g>
</g>
<g>
</g>
<g>
</g>
<g>
</g>
<g>
</g>
<g>
</g>
<g>
</g>
<g>
</g>
<g>
</g>
<g>
</g>
<g>
</g>
<g>
</g>
</svg>
